<?xml version="1.0" encoding="utf-8"?>
<!DOCTYPE svg PUBLIC "-//W3C//DTD SVG 1.1//EN" "http://www.w3.org/Graphics/SVG/1.1/DTD/svg11.dtd">
<svg version="1.1" id="图形" xmlns="http://www.w3.org/2000/svg" xmlns:xlink="http://www.w3.org/1999/xlink" x="0px" y="0px" width="32px" height="32px" viewBox="0 0 1024 1024" enable-background="new 0 0 1024 1024" xml:space="preserve">
  <path fill="#979696" d="M332.914688 437.073664l326.004736 0 0-135.834624-326.004736 0 0 135.834624ZM510.734336 812c-282.070016 0-510.73536-228.691968-510.73536-510.761984s228.66432-510.73536 510.73536-510.73536c282.070016 0 510.734336 228.665344 510.734336 510.73536S792.804352 812 510.734336 812zM224.246784 627.242752l570.508288 0 0-54.334464L224.246784 572.908288 224.246784 627.242752zM740.420608 491.408128l0-244.502528L251.413504 246.9056 251.413504 491.408128 740.420608 491.408128zM794.754048 29.568768 197.080064 29.568768l0 54.334464 186.468352 0c-16.263168 54.33344-37.460992 75.902976-63.792128 115.352576l63.792128 22.790144c25.322496-37.460992 47.900672-83.810304 67.8912-138.14272l120.686592 0c23.904256 54.33344 44.889088 91.10528 62.943232 140.637184l69.351424-27.777024C686.298112 154.978048 666.70592 138.235648 645.972992 83.903232l148.78208 0L794.755072 29.568768z" transform="translate(0, 812) scale(1, -1)"/>
</svg>
