<?xml version="1.0" encoding="utf-8"?>
<!DOCTYPE svg PUBLIC "-//W3C//DTD SVG 1.1//EN" "http://www.w3.org/Graphics/SVG/1.1/DTD/svg11.dtd">
<svg version="1.1" id="图形" xmlns="http://www.w3.org/2000/svg" xmlns:xlink="http://www.w3.org/1999/xlink" x="0px" y="0px" width="32px" height="32px" viewBox="0 0 1024 1024" enable-background="new 0 0 1024 1024" xml:space="preserve">
  <path fill="#979696" d="M512 812C230.4 812 0 581.6 0 300s230.4-512 512-512 512 230.4 512 512S793.6 812 512 812zM256 556l512 0c9.6 0 19.2-3.2 25.6-6.4L512 220 230.4 549.6C236.8 552.8 246.4 556 256 556L256 556zM192 108 192 492c0 0 0 3.2 0 3.2l188.8-217.6-185.6-185.6C192 98.4 192 101.6 192 108L192 108zM768 44 256 44c-6.4 0-9.6 0-16 3.2l182.4 182.4 89.6-105.6 89.6 105.6 182.4-182.4C780.8 44 774.4 44 768 44zM832 108c0-6.4 0-12.8-3.2-16l-185.6 185.6L832 495.2c0 0 0-3.2 0-3.2L832 108z" transform="translate(0, 812) scale(1, -1)"/>
</svg>
