<?xml version="1.0" encoding="utf-8"?>
<!DOCTYPE svg PUBLIC "-//W3C//DTD SVG 1.1//EN" "http://www.w3.org/Graphics/SVG/1.1/DTD/svg11.dtd">
<svg version="1.1" id="图形" xmlns="http://www.w3.org/2000/svg" xmlns:xlink="http://www.w3.org/1999/xlink" x="0px" y="0px" width="32px" height="32px" viewBox="0 0 1024 1024" enable-background="new 0 0 1024 1024" xml:space="preserve">
  <path fill="#979696" d="M512-212c-282.76736 0-512 229.23264-512 512s229.23264 512 512 512c282.76736 0 512-229.23264 512-512s-229.23264-512-512-512zM460.8 33.76c175.3088 0 316.06784 91.68896 316.06784 204.8 0 95.55968-119.66464 95.55968-119.66464 101.72416s59.5968 61.68576 0 96.21504c-59.5968 34.54976-168.57088-17.98144-165.29408-12.32896 46.87872 80.62976-20.13184 106.0864-54.272 106.0864-81.408 0-294.27712-178.5856-294.27712-291.69664s142.1312-204.8 317.44-204.8zM469.0944 96.49024c-112.00512-15.74912-211.10784 30.5152-221.32736 103.3216s72.27392 144.5888 184.27904 160.31744c112.00512 15.74912 211.10784-30.5152 221.32736-103.3216s-72.27392-144.5888-184.27904-160.31744zM448.38912 116.33536c66.62144 12.94336 111.88224 68.44416 101.08928 123.96544s-73.54368 90.03008-140.16512 77.06624c-66.62144-12.94336-111.88224-68.44416-101.08928-123.96544s73.54368-90.03008 140.16512-77.06624zM450.56 218.08c-11.30496 0-20.48 9.17504-20.48 20.48s9.17504 20.48 20.48 20.48c11.30496 0 20.48-9.17504 20.48-20.48s-9.17504-20.48-20.48-20.48zM403.33312 171.36512c-20.50048-9.56416-42.92608-4.85376-50.11456 10.52672s3.64544 35.59424 24.14592 45.1584c20.50048 9.56416 42.92608 4.85376 50.11456-10.52672s-3.64544-35.59424-24.14592-45.1584zM734.9248 485.856c-37.00736 33.30048-79.74912 21.62688-79.74912 21.62688-11.20256-1.47456-20.29568-11.8784-20.29568-23.04l0 5.71392c0-11.24352 9.0112-19.7632 20.35712-19.6608 0 0 35.28704 5.48864 55.00928-17.96096s5.65248-55.64416 5.65248-55.64416c-3.11296-10.83392 3.50208-19.59936 14.92992-19.59936l2.02752 0c11.3664 0 22.34368 8.94976 23.94112 20.1728 0 0 15.13472 55.0912-21.87264 88.39168zM804.00384 552.45696c-67.85024 64.14336-158.94528 54.94784-158.94528 54.94784-16.93696-0.12288-30.65856-14.0288-30.65856-30.78144l0 6.41024c0-16.87552 13.9264-29.88032 30.57664-29.9008 0 0 87.49056 10.09664 128.2048-48.3328s24.00256-123.02336 24.00256-123.02336c-2.3552-16.7936 9.44128-30.39232 26.35776-30.39232l-6.98368 0c16.91648 0 32.52224 13.57824 34.05824 30.35136 0 0 21.23776 106.57792-46.61248 170.72128z" transform="translate(0, 812) scale(1, -1)"/>
</svg>
