<?xml version="1.0" encoding="utf-8"?>
<!DOCTYPE svg PUBLIC "-//W3C//DTD SVG 1.1//EN" "http://www.w3.org/Graphics/SVG/1.1/DTD/svg11.dtd">
<svg version="1.1" id="图形" xmlns="http://www.w3.org/2000/svg" xmlns:xlink="http://www.w3.org/1999/xlink" x="0px" y="0px" width="32px" height="32px" viewBox="0 0 1024 1024" enable-background="new 0 0 1024 1024" xml:space="preserve">
  <path fill="#979696" d="M512.096 812C229.44 812 0.256 582.816 0.256 300.096c0-226.144 146.624-418.016 350.08-485.728 25.6-4.672 33.664 10.496 33.664 24.064 0 12.16 0.256 46.144 0 88.864-142.368-30.944-171.872 67.424-171.872 67.424-23.264 59.136-56.8 74.88-56.8 74.88-46.464 31.744 3.488 31.136 3.488 31.136 51.36-3.616 78.432-52.768 78.432-52.768 45.664-78.176 119.776-55.584 148.928-42.528 4.672 33.088 17.92 55.648 32.544 68.448-113.664 12.928-233.152 56.832-233.152 252.992 0 55.904 19.936 101.568 52.672 137.344C232.96 477.152 215.36 529.216 243.264 599.712c0 0 42.976 13.76 140.736-52.512 40.832 11.36 84.64 17.024 128.16 17.216 43.488-0.192 87.264-5.856 128.16-17.216 97.76 66.24 140.672 52.512 140.672 52.512 27.904-70.496 10.336-122.56 5.088-135.488 32.736-35.776 52.608-81.44 52.608-137.344 0-196.672-119.68-239.936-233.728-252.576C623.328 58.464 640 27.744 640-20c0-64 0-124.864 0-141.696 0-13.696 8.256-28.832 34.24-23.872C877.504-117.76 1024 74.016 1024 300.096 1024 582.816 794.816 812 512.096 812z" transform="translate(0, 812) scale(1, -1)"/>
</svg>
